<?xml version="1.0" encoding="utf-8"?>
<!-- Generator: Adobe Illustrator 23.1.1, SVG Export Plug-In . SVG Version: 6.00 Build 0)  -->
<svg version="1.1" id="Layer_1" xmlns="http://www.w3.org/2000/svg" xmlns:xlink="http://www.w3.org/1999/xlink" x="0px" y="0px"
	 viewBox="0 0 649.3 764.6" style="enable-background:new 0 0 649.3 764.6;" xml:space="preserve">
<style type="text/css">
	.st0{fill:none;stroke:#000000;stroke-width:10.84;stroke-miterlimit:10;}
</style>
<title>Design stor</title>
<g>
	<path class="st0" d="M108.8,61.5L55,7.7L7.7,55l53.8,53.8L108.8,61.5z M227.1,179.8L55,7.7L7.7,55l172.1,172.1L227.1,179.8z
		 M65,761.8l-48.3-79.1l47.9-78.4l-48.7-79.6l49-80.1l-49.8-81.4l54-88.2 M266,443.6c-38.1,0-69-30.9-69-69s30.9-69,69-69
		s69,30.9,69,69l0,0C335,412.7,304.1,443.6,266,443.6z M316.4,174.8c-0.7-90.5,72-164.3,162.5-165.1c90.5-0.7,164.3,72,165.1,162.5
		c0,0.9,0,1.7,0,2.6h-82.8c0-44.7-36.3-81-81-81s-81,36.3-81,81l0,0H316.4z M400.5,513.2H157.1v243.4h486.8V269.7H400.5V513.2z"/>
</g>
</svg>
