<svg id="Layer_1" data-name="Layer 1" xmlns="http://www.w3.org/2000/svg" viewBox="0 0 381.82 272.35"><defs><style>.cls-1{fill:#fff;}.cls-2{fill:none;stroke:#fff;stroke-miterlimit:10;stroke-width:1.21px;}</style></defs><title>Logo hvit</title><polygon class="cls-1" points="381.21 60.16 372.21 60.16 372.21 9.61 327.85 9.61 327.85 0.61 381.21 0.61 381.21 60.16"/><polygon class="cls-2" points="381.21 60.16 372.21 60.16 372.21 9.61 327.85 9.61 327.85 0.61 381.21 0.61 381.21 60.16"/><polygon class="cls-1" points="283.31 271.75 221.11 271.75 221.11 77.06 172.01 260.18 111.9 260.18 62.8 77.05 62.8 271.75 0.6 271.75 0.6 0.6 99.24 0.6 141.95 177.18 184.67 0.6 229.95 0.6 229.95 9.61 191.75 9.61 146.33 197.37 137.58 197.37 92.16 9.61 9.6 9.61 9.6 262.74 53.8 262.74 53.8 59.97 67.54 59.97 118.81 251.18 165.1 251.18 216.38 59.97 230.11 59.97 230.11 262.74 274.31 262.74 274.31 60.16 283.31 60.16 283.31 271.75"/><polygon class="cls-2" points="283.31 271.75 221.11 271.75 221.11 77.06 172.01 260.18 111.9 260.18 62.8 77.05 62.8 271.75 0.6 271.75 0.6 0.6 99.24 0.6 141.95 177.18 184.67 0.6 229.95 0.6 229.95 9.61 191.75 9.61 146.33 197.37 137.58 197.37 92.16 9.61 9.6 9.61 9.6 262.74 53.8 262.74 53.8 59.97 67.54 59.97 118.81 251.18 165.1 251.18 216.38 59.97 230.11 59.97 230.11 262.74 274.31 262.74 274.31 60.16 283.31 60.16 283.31 271.75"/></svg>