<svg id="Layer_1" data-name="Layer 1" xmlns="http://www.w3.org/2000/svg" xmlns:xlink="http://www.w3.org/1999/xlink" viewBox="0 0 649.41 719.06"><defs><style>.cls-1,.cls-3{fill:none;}.cls-2{clip-path:url(#clip-path);}.cls-3{stroke:#000;stroke-miterlimit:10;stroke-width:10.84px;}</style><clipPath id="clip-path" transform="translate(-275.3 -240.47)"><rect class="cls-1" width="1200" height="1200"/></clipPath></defs><title>Prosess stor</title><g class="cls-2"><path class="cls-3" d="M544.21,954.11h80.64m17,0h17.28M509.66,880.57H659.25m17,0h17.28M509.66,807H659.25m17,0h17.28M514.86,444a65.94,65.94,0,0,1-13.81,124.7l-.91.18A66.45,66.45,0,0,1,487.76,570a65.58,65.58,0,0,1-40.41-13.84M685.09,444a65.95,65.95,0,0,0,13.81,124.7l.91.18A66.45,66.45,0,0,0,712.19,570a65.61,65.61,0,0,0,40.42-13.84m-114,110.56a66,66,0,0,0,97.95,78.41l.76-.51a66.1,66.1,0,0,0,28.37-46.3m-28.37,46.3A101.32,101.32,0,0,0,873,594.48M559,666.73A66,66,0,0,1,461,745.14l-.77-.51a66.17,66.17,0,0,1-28.36-46.3m28.37,46.3A101.32,101.32,0,0,1,324.6,594.48M816.8,461.84A65.95,65.95,0,0,0,803,337.14l-.91-.18a66.45,66.45,0,0,0-12.38-1.16,65.67,65.67,0,0,0-40.42,13.84M850.49,607a101.36,101.36,0,0,0,6.92-189.33c-1.12-.47-2.26-.93-3.4-1.36M802.09,337A101.31,101.31,0,0,0,600,347.2M383.2,461.89A65.95,65.95,0,0,1,397,337.19l.91-.18a66.45,66.45,0,0,1,12.38-1.16,65.69,65.69,0,0,1,40.42,13.84M349.51,607.07a101.36,101.36,0,0,1-6.92-189.33c1.12-.47,2.26-.93,3.4-1.36M397.91,337A101.31,101.31,0,0,1,600,347.25" transform="translate(-275.3 -240.47)"/></g></svg>