<svg id="Layer_1" data-name="Layer 1" xmlns="http://www.w3.org/2000/svg" xmlns:xlink="http://www.w3.org/1999/xlink" viewBox="0 0 652.71 643.55"><defs><style>.cls-1,.cls-3{fill:none;}.cls-2{clip-path:url(#clip-path);}.cls-3{stroke:#000;stroke-miterlimit:10;stroke-width:10.84px;}</style><clipPath id="clip-path" transform="translate(-273.64 -278.22)"><rect class="cls-1" width="1200" height="1200"/></clipPath></defs><title>Research stor</title><g class="cls-2"><path d="M559.3,344.2c-119.71,0-216.76,97-216.76,216.75s97,216.75,216.76,216.75,216.75-97,216.75-216.75S679,344.2,559.3,344.2m0,10.84C672.84,355,765.21,447.41,765.21,561S672.84,766.87,559.3,766.87,353.38,674.49,353.38,561,445.75,355,559.3,355" transform="translate(-273.64 -278.22)"/><path class="cls-3" d="M733.09,780.1l134,134,51.58-51.59-136.1-136.1M409.05,561c0-4.81.22-9.58.67-14.28m2.91-18.5a150.48,150.48,0,0,1,82.44-103.09" transform="translate(-273.64 -278.22)"/><path d="M559.3,278.22c-157.77,0-285.66,127.89-285.66,285.66S401.53,849.53,559.3,849.53,845,721.64,845,563.88,717.06,278.22,559.3,278.22m0,10.84c151.53,0,274.81,123.28,274.81,274.82S710.83,838.69,559.3,838.69,284.48,715.41,284.48,563.88,407.76,289.06,559.3,289.06" transform="translate(-273.64 -278.22)"/></g></svg>