<svg id="Layer_1" data-name="Layer 1" xmlns="http://www.w3.org/2000/svg" xmlns:xlink="http://www.w3.org/1999/xlink" viewBox="0 0 157.95 155.74"><defs><style>.cls-1,.cls-3{fill:none;}.cls-2{clip-path:url(#clip-path);}.cls-3{stroke:#000;stroke-miterlimit:10;stroke-width:3.94px;}</style><clipPath id="clip-path" transform="translate(-171.03 -172.13)"><rect class="cls-1" width="500" height="500"/></clipPath></defs><title>Research meny</title><g class="cls-2"><path d="M239.74,188a52.14,52.14,0,1,0,52.14,52.14A52.14,52.14,0,0,0,239.74,188m0,3.94a48.2,48.2,0,1,1-48.2,48.2,48.25,48.25,0,0,1,48.2-48.2" transform="translate(-171.03 -172.13)"/><path class="cls-3" d="M281.54,292.85l32.24,32.24,12.41-12.41-32.74-32.74m-89.85-39.8c0-1.16.05-2.31.16-3.44m.7-4.45a35.8,35.8,0,0,1,5.68-12.85,36.3,36.3,0,0,1,14.15-12" transform="translate(-171.03 -172.13)"/><path d="M239.74,172.13a68.71,68.71,0,1,0,68.71,68.71,68.71,68.71,0,0,0-68.71-68.71m0,3.94A64.78,64.78,0,1,1,175,240.84a64.84,64.84,0,0,1,64.78-64.77" transform="translate(-171.03 -172.13)"/></g></svg>